<?xml version="1.0" encoding="UTF-8"?>
<svg version="1.1" viewBox="0 0 1624 831" width="1624" height="831" xmlns="http://www.w3.org/2000/svg">
<path transform="translate(0)" d="m0 0h1624v831h-1624z" fill="#FDFDFD"/>
<path transform="translate(271,817)" d="m0 0h1104v13h-1104z" fill="#CDCDCD"/>
<path transform="translate(769,268)" d="m0 0h16l5 3 3 6v17h64v-20l4-5 3-1h16l5 3 2 3v20h39v14l-5 5-3 1h-31l1 50 2 11 3 5 8 4 9 2 17 1v13l-4 5-2 1h-25l-16-3-10-5-7-6-5-9-1-4v-65h-64l1 58 3 6 6 5 12 3 17 1v13l-4 5-2 1h-25l-16-3-10-5-7-6-5-10-1-3v-65h-11l-6-3-3-6v-10l1-1h19v-20l5-5z" fill="#EF0027"/>
<path transform="translate(986,294)" d="m0 0h33l16 2 12 4 11 7 6 8 3 8 1 4v18l-4 8-6 4-10 2h-82l2 14 3 6 5 4 5 2 6 1 77 1v12l-3 5-4 2h-83l-14-3-10-5-6-5-5-7-4-13-1-5v-34l3-13 4-8 8-8 14-7 14-3z" fill="#EF0027"/>
<path transform="translate(653,294)" d="m0 0h34l19 3 12 5 8 6 6 8 3 9 1 7v10l-3 9-6 5-4 2-7 1h-83l3 16 4 6 9 4 5 1 77 1v13l-4 5-2 1h-83l-12-2-14-7-7-7-5-10-2-9-1-10v-20l2-16 4-10 8-9 10-6 13-4z" fill="#EF0027"/>
<path transform="translate(401,294)" d="m0 0h19l10 3 7 8 19 39 13 28 4 8 4-1 32-68 5-9 7-6 8-2h19l1 2-29 56-17 33-9 16-5 4-5 2h-19l-8-4-4-5-14-27-15-29-17-33-7-14z" fill="#EF0027"/>
<path transform="translate(1093,268)" d="m0 0h16l5 3 2 3 1 91 2 10 3 5 7 4 10 2 17 1v13l-4 5-2 1h-25l-16-3-10-5-7-6-5-9-1-4v-105l4-5z" fill="#EF0027"/>
<path transform="translate(562,294)" d="m0 0h13l7 3 2 4v99l-4 5-2 1h-18l-5-3-2-4v-98l5-6z" fill="#EF0027"/>
<path transform="translate(941,483)" d="m0 0h15l14 3 6 4 4 5 3 10v13l-3 11-5 6-9 4-5 1h-25l-10-3-7-5-4-9-1-5v-12l2-9 6-8 8-4z" fill="#242021"/>
<path transform="translate(857,483)" d="m0 0h7l5 2 6 16 8 25 2-3 11-37 1-2h13l-1 7-14 44-5 5h-12l-5-5-11-34v-3h-2l-3 11-8 26-5 5h-12l-5-5-8-25-8-26h14l13 42 2-3 12-37z" fill="#242021"/>
<path transform="translate(723,483)" d="m0 0h15l12 3 6 4 4 6 1 4v10l-4 5-3 1h-41l3 10 4 3 6 1 33 1v9h-41l-9-2-6-5-4-10v-20l3-9 6-7 8-3z" fill="#242021"/>
<path transform="translate(636,484)" d="m0 0h37l9 3 5 5 2 4v44h-14l-1-39-3-5-5-2h-20l-1 46h-14v-52z" fill="#242021"/>
<path transform="translate(1109,484)" d="m0 0h44v9l-38 1-2 1v6l5 3 27 7 8 5 3 6v8l-3 6-4 3-4 1h-46v-9l37-1 4-2v-6l-7-3-24-6-6-3-4-5-1-2v-10l3-5 4-3z" fill="#242021"/>
<path transform="translate(657,313)" d="m0 0h22l13 3 8 6 4 8-1 7-2 2-50 1-9 2-5 3h-2l-1 3h-1v-14l2-8 4-6 9-5z" fill="#FDFDFD"/>
<path transform="translate(990,313)" d="m0 0h21l10 2 8 4 5 5 2 4v9l-2 2-50 1-12 3-6 5v-18l4-8 8-6z" fill="#FDFDFD"/>
<path transform="translate(774,466)" d="m0 0h14v18h18v9h-18l1 30 2 4 4 2 11 2v9h-14l-8-2-5-3-4-5-1-3v-34h-9v-9h9z" fill="#242021"/>
<path transform="translate(946,492)" d="m0 0 11 1 6 3 4 5 1 3v16l-3 6-6 4-3 1h-15l-8-4-3-4-1-4v-15l3-6 5-4z" fill="#FCFCFC"/>
<path transform="translate(1034,466)" d="m0 0h14v74h-14z" fill="#242021"/>
<path transform="translate(1009,484)" d="m0 0h19v9l-11 1-7 3-2 4-1 39h-15v-37l2-9 5-6z" fill="#242021"/>
<path transform="translate(1076,484)" d="m0 0h16l-6 7-12 11-6 6v5l11 11 8 7 9 8v1h-18l-10-10-8-7-7-8v-8l7-8 9-9z" fill="#242021"/>
<path transform="translate(560,263)" d="m0 0h17l6 4 1 3v8l-4 5-2 1-13 1-8 4-4 4v-23l5-6z" fill="#EF0027"/>
<path transform="translate(728,492)" d="m0 0 10 1 7 4 1 2v7h-33l2-8 4-4z" fill="#FBFBFB"/>
</svg>
