<?xml version="1.0" encoding="UTF-8"?>
<svg version="1.1" viewBox="0 0 1624 831" width="1624" height="831" xmlns="http://www.w3.org/2000/svg">
<path transform="translate(768,268)" d="m0 0h18l4 2 3 6v17l62 1 1-1v-18l3-5 4-2h18l6 5 1 2v19h38l1 1v10l-2 5-5 4h-32l1 57 3 7 6 5 7 2 9 1h12l1 1v14l-5 5h-29l-14-3-11-6-7-7-4-10-1-19v-44l1-3h-64l1 58 3 6 6 5 7 2 9 1h13v15l-5 5h-29l-16-4-9-5-8-9-3-8-1-8v-56l1-2h-13l-5-3-2-4v-12l1-1 18-1v-17l4-7z" fill="#EF0D32"/>
<path transform="translate(983,294)" d="m0 0h39l17 3 12 5 8 6 7 10 2 8v20l-3 6-6 5-7 2h-86l3 17 5 6 9 3 6 1h74l1 1v13l-5 6h-87l-16-4-10-7-6-7-4-9-2-10v-37l3-12 6-10 7-6 12-6 14-3zm3 20-9 3-7 5-3 5-1 4v15l4-2 7-3 7-1 50-1 2-2v-8l-2-5-8-7-11-3z" fill="#EF092F"/>
<path transform="translate(651,294)" d="m0 0h39l17 3 12 5 10 9 3 5 3 8 1 5v14l-3 8-7 6-7 2h-86l3 16 4 6 6 3 11 2h74l1 2v9l-3 7-3 2h-87l-13-3-9-5-5-5-6-8-3-8-2-16v-22l2-15 7-14 12-9 10-4zm3 20-10 3-8 7-2 4-1 8v11l8-5 10-2 50-1 3-4-1-8-5-7-7-4-9-2z" fill="#EF092F"/>
<path transform="translate(400,294)" d="m0 0h23l10 5 6 9 13 28 8 16 13 28h3l6-12 13-28 9-20 8-16 6-7 8-3h22l1 2-8 16-12 23-14 27-17 33-4 6-6 5-10 2-14-1-6-3-6-7-10-19-8-16-22-43-10-18-2-4z" fill="#EF082E"/>
<path transform="translate(1092,268)" d="m0 0h18l4 2 3 5 1 96 3 7 6 5 7 2 9 1h13v15l-5 5h-29l-14-3-11-6-7-7-3-6-2-14v-94l3-6z" fill="#EF0D32"/>
<path transform="translate(561,294)" d="m0 0h15l6 3 2 3v101l-5 5h-21l-5-6v-100l5-5z" fill="#EF032A"/>
<path transform="translate(811,483)" d="m0 0h14l2 6 10 33v4h3l2-9 5-17 4-13 4-4h11l5 5 10 31 2 6 2 1 2-10 9-32 1-1h13l1 3-12 38-4 12-4 4-3 1h-8l-5-3-3-5-10-32v-3h-2l-2 9-9 28-5 5-3 1h-8l-4-2-4-8-13-42z" fill="#362F31"/>
<path transform="translate(719,483)" d="m0 0h22l11 3 6 5 3 8v11l-2 4-4 2h-41l2 10 6 3 37 1v10h-44l-8-3-5-5-3-8v-24l4-9 6-5zm4 10-6 3-3 5v5h31l1-1v-6l-6-5-4-1z" fill="#353031"/>
<path transform="translate(936,483)" d="m0 0h24l11 3 7 5 3 5 2 9v13l-2 9-4 6-5 4-9 3-8 1h-15l-13-3-6-4-4-5-3-9v-17l3-9 5-5 6-4zm5 10-8 4-4 8v13l3 7 4 4 8 2h8l8-2 4-2 4-8v-13l-3-8-3-3-6-2z" fill="#342E2F"/>
<path transform="translate(637,483)" d="m0 0h32l12 3 6 5 3 9v40h-15l-1-38-2-5-8-3h-17l-1 1-1 45h-15v-51l5-5z" fill="#3A3032"/>
<path transform="translate(1111,483)" d="m0 0h42v11h-37l-3 1v6l6 3 21 5 10 4 5 5 1 2v12l-4 6-5 2h-49v-8l1-2 39-1 2-1v-7l-18-4-17-5-5-4-2-4v-12l3-5 6-3z" fill="#383234"/>
<path transform="translate(774,465)" d="m0 0h14v18h19v10l-3 1h-15v28l3 5 5 2 10 1v10h-18l-9-3-5-6-1-3v-35h-9v-10h9l-1-17z" fill="#332C2D"/>
<path transform="translate(1034,465)" d="m0 0h14l1 2v72l-1 1h-14l-1-74z" fill="#282425"/>
<path transform="translate(1014,483)" d="m0 0h14v10l-14 2-5 5-1 3-1 37h-15v-40l3-8 5-5 7-3z" fill="#3B272B"/>
<path transform="translate(1076,483)" d="m0 0h17l-2 4-11 10-8 7-4 4 1 6 13 12 12 11 2 3-3 1-15-1-12-11-10-9-4-8 2-7 5-5z" fill="#383132"/>
<path transform="translate(560,263)" d="m0 0h17l5 3 2 3v10l-5 5-13 1-7 3-6 5v-24l5-5z" fill="#EF082D"/>
</svg>
