<?xml version="1.0" encoding="UTF-8"?>
<svg version="1.1" viewBox="0 0 2048 1448" width="3508" height="2481" xmlns="http://www.w3.org/2000/svg">
<path transform="translate(1e3 568)" d="m0 0h39l7 3 6 5 4 10v43h149v-45l4-8 7-6 5-2h40l8 4 5 6 3 8v43h90v28l-4 8-7 6-5 2h-74l1 128 3 13 4 8 7 8 12 7 14 4 15 2 36 1v28l-3 7-4 5-8 4h-57l-22-3-18-5-16-8-10-7-10-9-7-10-6-14-3-16v-143h-149l1 128 3 13 6 11 9 8 11 5 17 4 9 1 36 1v28l-5 10-7 5-3 1h-57l-22-3-18-5-16-8-13-9-8-8-8-13-4-10-3-17v-142h-28l-9-4-5-6-3-8v-26h45v-45l4-8 7-6z" fill="#ED1B2F"/>
<path transform="translate(1514,628)" d="m0 0h66l24 2 26 5 15 5 16 8 11 8 11 11 8 13 5 13 3 15 1 10v19l-3 15-6 10-8 8-13 6-12 2h-197l3 27 3 11 4 8 6 7 10 6 13 4 13 2 176 1v29l-4 8-8 6-3 1h-191l-21-3-17-5-16-8-11-8-10-10-9-14-6-15-4-18-2-20v-54l2-20 5-21 8-16 8-11 7-7 14-10 17-8 20-6 23-4zm9 44-16 2-16 5-11 6-8 7-7 11-3 10-1 10v32l4-5 9-8 13-5 9-2 117-1 8-3 4-5 1-10-3-12-6-10-8-8-10-6-16-5-21-3z" fill="#ED1B2F"/>
<path transform="translate(740,628)" d="m0 0h65l24 2 23 4 21 7 14 7 12 9 9 9 8 13 5 12 4 20v32l-4 12-6 9-8 7-12 5-11 2h-197l2 23 4 16 6 10 8 7 11 5 13 3 8 1 176 1v28l-5 10-7 5-3 1h-192l-20-3-14-4-12-5-12-7-13-11-9-12-7-15-5-17-3-22v-64l3-22 4-14 5-12 9-13 10-10 10-7 17-9 19-6 20-4 16-2zm8 44-20 3-16 6-11 8-7 8-5 10-2 11v37l3-4 4-5 12-7 15-4 117-1 9-3 4-6v-14l-4-11-7-9-8-7-13-6-14-4-17-2z" fill="#ED1B2F"/>
<path transform="translate(144,629)" d="m0 0h53l12 4 9 6 8 8 6 11 17 35 13 28 14 29 9 20 8 16 18 38 4 6 3 1 5-5 17-35 13-28 34-72 16-34 5-9 8-9 9-6 13-4h52l-1 5-12 23-18 35-12 23-18 35-15 29-17 33-12 23-18 35-7 9-7 6-9 4-9 2h-34l-12-3-10-5-9-9-12-23-14-27-17-33-45-87-17-33-15-29-6-11z" fill="#ED1B2F"/>
<path transform="translate(1756,568)" d="m0 0h40l8 4 6 7 2 6 1 215 3 14 6 11 8 7 12 6 17 4 9 1 36 1v29l-4 8-8 6-3 1h-56l-23-3-15-4-16-7-12-8-10-9-9-13-5-13-3-16v-230l3-7 6-7z" fill="#ED1B2F"/>
<path transform="translate(516,629)" d="m0 0h40l10 5 5 7 1 3v229l-4 8-8 6-2 1h-43l-8-5-4-5-2-4-1-6v-219l3-10 5-6z" fill="#ED1B2F"/>
<path transform="translate(518,556)" d="m0 0h37l7 3 7 6 3 7v17l-4 8-6 5-9 3-26 1-11 4-8 6-5 8-2 4h-1v-51l2-8 3-5 7-6z" fill="#ED1B2F"/>
<path transform="translate(374,380)" d="m0 0h2v2l-4 1v-2z" fill="#fff"/>
</svg>
