<?xml version="1.0" standalone="no"?>
<!DOCTYPE svg PUBLIC "-//W3C//DTD SVG 20010904//EN"
 "http://www.w3.org/TR/2001/REC-SVG-20010904/DTD/svg10.dtd">
<svg version="1.0" xmlns="http://www.w3.org/2000/svg"
 width="500.000000pt" height="500.000000pt" viewBox="0 0 500.000000 500.000000"
 preserveAspectRatio="xMidYMid meet">

<g transform="translate(0.000000,500.000000) scale(0.100000,-0.100000)"
fill="#000000" stroke="none">
<path d="M0 2500 l0 -2500 2500 0 2500 0 0 2500 0 2500 -2500 0 -2500 0 0
-2500z m4650 425 c0 -86 3 -106 17 -113 21 -12 10 -42 -16 -42 -38 0 -51 37
-51 146 0 106 0 106 43 113 4 0 7 -46 7 -104z m-2655 70 c0 -22 -31 -33 -47
-17 -17 17 -1 44 24 40 15 -2 23 -10 23 -23z m1980 0 c0 -22 -31 -33 -47 -17
-17 17 -1 44 24 40 15 -2 23 -10 23 -23z m-2633 -62 l32 -67 29 67 c24 55 34
67 53 67 12 0 25 -3 27 -7 3 -5 8 -56 12 -115 l7 -108 -26 0 c-25 0 -26 2 -26
59 0 33 -4 62 -9 65 -5 3 -18 -17 -29 -44 -29 -70 -52 -68 -83 8 -13 31 -24
50 -26 42 -1 -8 -5 -41 -8 -72 -6 -53 -8 -58 -31 -58 -25 0 -25 1 -19 63 16
175 14 167 41 167 21 0 30 -11 56 -67z m748 37 c0 -13 8 -20 28 -22 19 -2 27
-9 27 -23 0 -14 -8 -21 -27 -23 -26 -3 -28 -7 -28 -48 0 -42 1 -44 30 -44 23
0 30 -4 30 -20 0 -17 -7 -20 -39 -20 -62 0 -71 16 -71 125 0 81 2 94 18 98 24
5 32 -1 32 -23z m580 -85 l0 -115 -30 0 -30 0 0 115 0 115 30 0 30 0 0 -115z
m318 63 c19 -2 28 -10 30 -25 3 -20 -1 -23 -28 -23 -30 0 -31 -1 -28 -42 3
-39 6 -43 31 -46 19 -2 27 -9 27 -23 0 -15 -7 -19 -37 -19 -62 0 -73 19 -73
126 0 88 1 93 23 96 16 2 23 -3 25 -19 2 -15 11 -23 30 -25z m863 2 c24 0 29
-4 29 -25 0 -21 -5 -25 -30 -25 -27 0 -30 -3 -30 -32 0 -42 9 -55 40 -59 14
-2 26 -12 28 -21 3 -15 -4 -18 -41 -18 -62 0 -70 14 -75 125 -4 92 -4 93 19
97 19 2 25 -2 27 -19 3 -18 10 -23 33 -23z m-2178 -20 c31 -25 41 -62 27 -106
-13 -39 -35 -54 -81 -54 -49 0 -79 33 -79 87 0 80 73 120 133 73z m198 1 c19
-16 24 -30 27 -90 4 -71 4 -71 -22 -71 -25 0 -26 2 -26 58 0 57 -11 82 -37 82
-9 0 -13 -19 -13 -70 0 -68 -1 -70 -25 -70 -25 0 -25 1 -25 84 0 58 4 86 13
89 29 12 86 6 108 -12z m119 -71 c0 -89 0 -90 -25 -90 -25 0 -25 1 -25 83 0
89 3 97 32 97 16 0 18 -9 18 -90z m332 60 c27 -27 30 -36 25 -73 -7 -52 -36
-77 -87 -77 -49 0 -80 35 -80 92 0 83 83 116 142 58z m173 5 c0 -16 -6 -19
-27 -17 l-28 3 0 -70 c0 -69 -1 -71 -25 -71 -25 0 -25 1 -25 84 0 93 2 96 70
93 28 -2 35 -6 35 -22z m346 6 c19 -16 24 -30 27 -90 4 -71 4 -71 -22 -71 -25
0 -26 2 -26 58 0 57 -11 82 -37 82 -9 0 -13 -19 -13 -70 0 -68 -1 -70 -25 -70
-25 0 -25 1 -25 84 0 58 4 86 13 89 29 12 86 6 108 -12z m343 -2 c19 -15 26
-30 26 -55 l0 -34 -56 0 c-49 0 -55 -2 -44 -15 7 -9 29 -15 51 -15 32 0 39 -3
39 -20 0 -17 -7 -20 -50 -20 -41 0 -56 5 -75 25 -36 35 -34 88 4 126 35 34 68
37 105 8z m178 15 c3 -3 4 -14 1 -24 -3 -13 -13 -18 -31 -17 -26 2 -27 1 -30
-65 -3 -65 -4 -68 -27 -68 -24 0 -25 2 -25 80 0 74 2 81 23 90 25 10 81 13 89
4z m159 -13 c19 -16 24 -30 27 -90 4 -71 4 -71 -22 -71 -25 0 -26 2 -26 58 0
57 -11 82 -37 82 -9 0 -13 -19 -13 -70 0 -68 -1 -70 -25 -70 -25 0 -25 1 -25
84 0 58 4 86 13 89 29 12 86 6 108 -12z m189 -1 c16 -16 20 -33 20 -90 l0 -70
-59 0 c-66 0 -91 15 -91 55 0 29 34 55 73 55 19 0 27 4 24 13 -2 6 -20 12 -40
12 -27 0 -37 4 -37 16 0 24 10 29 52 29 25 0 45 -7 58 -20z m260 -70 c0 -89 0
-90 -25 -90 -25 0 -25 1 -25 83 0 89 3 97 32 97 16 0 18 -9 18 -90z m185 65
c54 -53 21 -155 -51 -155 -47 0 -63 9 -80 42 -46 90 62 183 131 113z m195 5
c16 -16 20 -33 20 -90 0 -68 -1 -70 -25 -70 -24 0 -25 2 -25 64 0 49 -4 65
-16 70 -31 12 -34 5 -34 -64 0 -68 -1 -70 -25 -70 -25 0 -25 1 -25 84 0 93 -1
93 73 95 25 1 43 -5 57 -19z m186 6 c16 -12 19 -27 19 -88 l0 -73 -52 -3 c-67
-4 -93 10 -93 48 0 34 31 60 73 60 19 0 27 4 25 13 -3 6 -20 12 -39 12 -35 0
-57 23 -35 37 19 13 81 9 102 -6z m-3986 -86 l0 -70 -36 0 c-21 0 -33 -4 -29
-10 4 -6 -8 -10 -30 -10 -22 0 -34 4 -30 10 4 6 -10 10 -34 10 l-41 0 0 70 0
70 100 0 100 0 0 -70z m495 35 c0 -16 6 -34 12 -40 7 -5 16 -25 19 -43 l7 -33
-59 3 c-52 3 -59 6 -62 25 -2 12 6 31 16 41 12 12 17 25 12 33 -13 20 8 51 33
47 17 -2 22 -10 22 -33z m2665 -424 c0 -84 3 -111 15 -121 21 -17 19 -30 -5
-30 -10 0 -24 9 -30 19 -11 21 -14 224 -3 234 18 19 23 -2 23 -102z m-2297 72
c19 -11 -8 -22 -43 -17 -33 5 -42 2 -64 -19 -33 -33 -36 -102 -7 -138 16 -20
28 -24 71 -22 72 2 60 -21 -13 -25 -51 -3 -60 0 -81 23 -47 51 -46 132 2 177
15 14 36 28 47 31 20 5 73 -1 88 -10z m1127 2 c0 -8 -6 -15 -14 -15 -17 0 -28
14 -19 24 12 12 33 6 33 -9z m688 -11 c63 -41 51 -187 -17 -209 -30 -9 -26
-25 9 -31 31 -7 43 -34 15 -34 -24 0 -72 27 -78 45 -4 8 -15 15 -25 15 -24 0
-69 48 -77 83 -11 41 2 92 31 120 39 39 92 43 142 11z m582 11 c0 -8 -9 -15
-20 -15 -11 0 -20 7 -20 15 0 8 9 15 20 15 11 0 20 -7 20 -15z m-1400 -31 c0
-20 5 -24 30 -24 17 0 30 -4 30 -10 0 -5 -13 -10 -30 -10 l-30 0 0 -60 c0 -41
4 -60 13 -61 6 -1 20 -2 29 -3 32 -2 19 -21 -15 -24 -50 -4 -60 15 -65 120 -3
68 -1 92 9 98 19 12 29 3 29 -26z m1511 -24 c16 0 29 -4 29 -10 0 -5 -13 -10
-30 -10 -30 0 -30 0 -30 -59 0 -62 12 -78 51 -66 13 4 19 1 19 -9 0 -20 -70
-22 -88 -4 -17 17 -17 205 1 211 7 2 13 -7 15 -25 3 -24 8 -28 33 -28z m-2348
-10 c34 -27 44 -78 23 -118 -8 -16 -23 -32 -31 -36 -27 -10 -70 -7 -88 7 -44
32 -35 130 13 154 35 18 53 16 83 -7z m204 -7 c8 -9 13 -46 13 -85 0 -54 -3
-68 -15 -68 -12 0 -15 14 -15 63 0 70 -10 87 -52 87 l-28 0 0 -75 c0 -60 -3
-75 -15 -75 -12 0 -15 16 -15 84 0 80 1 85 23 89 38 8 91 -2 104 -20z m189 6
c21 -17 20 -159 -1 -159 -12 0 -15 14 -15 63 0 68 -10 87 -47 87 -22 0 -23 -3
-23 -75 0 -68 -2 -75 -20 -75 -18 0 -20 7 -20 84 0 80 1 85 23 89 32 7 87 0
103 -14z m167 12 c14 -6 28 -19 31 -30 19 -66 23 -61 -43 -61 -47 0 -61 -3
-61 -15 0 -23 46 -48 75 -41 18 5 25 2 25 -9 0 -19 -78 -21 -103 -2 -40 29
-37 122 5 152 26 18 38 18 71 6z m191 3 c28 -11 17 -24 -18 -24 -42 0 -60 -21
-59 -67 1 -44 14 -57 58 -57 22 0 35 -5 35 -13 0 -21 -74 -16 -101 6 -19 15
-24 29 -24 66 0 39 5 51 28 71 28 24 52 29 81 18z m389 -14 c34 -27 44 -78 23
-118 -8 -16 -23 -32 -31 -36 -27 -10 -70 -7 -88 7 -44 32 -35 130 13 154 35
18 53 16 83 -7z m204 -7 c8 -9 13 -46 13 -85 0 -54 -3 -68 -15 -68 -12 0 -15
14 -15 63 0 70 -10 87 -52 87 l-28 0 0 -75 c0 -60 -3 -75 -15 -75 -12 0 -15
16 -15 84 0 80 1 85 23 89 38 8 91 -2 104 -20z m691 11 c19 -13 22 -24 22 -90
l0 -74 -53 0 c-59 0 -77 12 -77 51 0 34 20 51 65 52 30 1 35 4 33 21 -2 16
-12 22 -40 24 -36 3 -46 11 -31 25 12 12 58 7 81 -9z m-1068 -79 c0 -69 -3
-85 -15 -85 -12 0 -15 16 -15 85 0 69 3 85 15 85 12 0 15 -16 15 -85z m810 20
c0 -54 3 -66 20 -75 12 -6 30 -8 40 -5 17 6 20 16 20 76 0 55 3 69 15 69 13 0
15 -14 13 -82 l-3 -83 -49 -3 c-71 -5 -86 13 -86 100 0 54 3 68 15 68 12 0 15
-14 15 -65z m460 -20 c0 -78 -2 -85 -20 -85 -18 0 -20 7 -20 85 0 78 2 85 20
85 18 0 20 -7 20 -85z m214 25 c10 -33 22 -62 26 -65 4 -3 16 24 25 60 12 42
23 65 32 65 11 0 13 -8 8 -32 -12 -54 -54 -161 -72 -180 -19 -22 -73 -24 -73
-4 0 9 7 12 18 9 10 -2 26 4 35 15 16 18 16 22 -11 83 -40 88 -44 109 -24 109
12 0 23 -19 36 -60z m-3184 -5 c8 -9 8 -15 2 -15 -6 0 -13 -9 -17 -19 -4 -13
-14 -18 -33 -17 -34 1 -67 30 -59 50 8 21 90 22 107 1z m-40 -65 c0 -5 -4 -10
-10 -10 -5 0 -10 5 -10 10 0 6 5 10 10 10 6 0 10 -4 10 -10z"/>
<path d="M1601 2896 c-7 -8 -11 -30 -9 -48 2 -25 8 -34 25 -36 39 -6 55 67 19
90 -16 11 -22 10 -35 -6z"/>
<path d="M2242 2898 c-14 -14 -16 -57 -3 -76 11 -18 41 -12 55 10 7 11 7 26 0
45 -10 31 -33 40 -52 21z"/>
<path d="M3110 2895 c-11 -13 -8 -15 20 -15 21 0 30 4 28 13 -7 18 -33 20 -48
2z"/>
<path d="M3643 2843 c-18 -7 -16 -30 4 -37 21 -8 38 8 30 28 -7 16 -13 18 -34
9z"/>
<path d="M4084 2902 c-36 -23 -20 -96 19 -90 17 2 23 11 25 36 5 45 -17 72
-44 54z"/>
<path d="M4473 2843 c-18 -7 -16 -30 4 -37 21 -8 38 8 30 28 -7 16 -13 18 -34
9z"/>
<path d="M360 2855 l0 -55 90 0 90 0 0 55 0 55 -90 0 -90 0 0 -55z"/>
<path d="M3115 2495 c-19 -18 -25 -35 -25 -68 0 -77 60 -119 112 -77 66 51 33
170 -48 170 -8 0 -26 -11 -39 -25z"/>
<path d="M1490 2441 c-23 -44 -1 -111 38 -111 35 0 59 89 30 118 -18 18 -56
14 -68 -7z"/>
<path d="M2072 2448 c-24 -24 -13 -38 28 -38 26 0 40 5 40 13 0 18 -21 37 -40
37 -9 0 -21 -5 -28 -12z"/>
<path d="M2630 2441 c-23 -44 -1 -111 38 -111 35 0 59 89 30 118 -18 18 -56
14 -68 -7z"/>
<path d="M3537 2383 c-13 -12 -7 -41 9 -47 37 -14 54 -7 54 24 0 26 -4 30 -28
30 -16 0 -32 -3 -35 -7z"/>
</g>
</svg>
