<?xml version="1.0" standalone="no"?>
<!DOCTYPE svg PUBLIC "-//W3C//DTD SVG 20010904//EN"
 "http://www.w3.org/TR/2001/REC-SVG-20010904/DTD/svg10.dtd">
<svg version="1.0" xmlns="http://www.w3.org/2000/svg"
 width="500.000000pt" height="500.000000pt" viewBox="0 0 500.000000 500.000000"
 preserveAspectRatio="xMidYMid meet">

<g transform="translate(0.000000,500.000000) scale(0.100000,-0.100000)"
fill="#000000" stroke="none">
<path d="M4588 3153 c-16 -4 -18 -18 -18 -107 0 -109 13 -146 51 -146 26 0 37
30 16 42 -14 7 -17 27 -17 113 0 58 -3 104 -7 104 -5 -1 -16 -3 -25 -6z"/>
<path d="M1914 3135 c-4 -9 -2 -21 4 -27 16 -16 47 -5 47 17 0 26 -42 34 -51
10z"/>
<path d="M3894 3135 c-4 -9 -2 -21 4 -27 16 -16 47 -5 47 17 0 26 -42 34 -51
10z"/>
<path d="M360 3108 c-50 -34 -72 -71 -78 -127 -11 -116 89 -208 203 -187 48 9
112 68 127 117 l11 39 127 0 126 0 13 -35 c6 -19 23 -43 35 -53 l24 -18 -65
-116 -65 -115 -40 0 c-56 0 -93 -38 -93 -94 0 -54 38 -89 95 -89 69 0 114 84
76 143 -14 20 -10 30 52 139 62 109 69 118 97 118 68 0 135 66 135 133 0 69
-62 127 -137 127 -33 0 -50 -7 -77 -30 -18 -17 -37 -41 -40 -55 l-6 -25 -129
0 -129 0 -7 30 c-8 37 -48 86 -86 105 -44 23 -130 19 -169 -7z m190 -128 l0
-70 -35 0 c-19 0 -35 -4 -35 -10 0 -5 -13 -10 -30 -10 -16 0 -30 5 -30 10 0 6
-16 10 -35 10 l-35 0 0 70 0 70 100 0 100 0 0 -70z m485 23 c0 -18 3 -33 6
-33 7 0 29 -46 29 -60 0 -6 -25 -10 -55 -10 -51 0 -55 2 -55 24 0 13 7 29 15
36 9 8 13 21 9 36 -8 30 3 46 29 42 17 -2 22 -10 22 -35z m-211 -449 c9 -3 16
-13 16 -21 0 -8 -4 -11 -10 -8 -6 3 -7 -1 -4 -9 3 -9 1 -16 -4 -16 -6 0 -18
-7 -26 -16 -15 -14 -19 -13 -48 16 -31 31 -31 33 -13 46 20 15 62 18 89 8z"/>
<path d="M360 2975 l0 -55 90 0 90 0 0 55 0 55 -90 0 -90 0 0 -55z"/>
<path d="M778 2513 c7 -3 16 -2 19 1 4 3 -2 6 -13 5 -11 0 -14 -3 -6 -6z"/>
<path d="M1226 3078 c-19 -188 -19 -178 8 -178 23 0 25 5 31 58 3 31 7 64 8
72 2 8 13 -11 26 -42 31 -76 54 -78 83 -8 11 27 24 47 29 44 5 -3 9 -32 9 -65
0 -57 1 -59 26 -59 l26 0 -7 108 c-4 59 -9 110 -12 115 -2 4 -15 7 -27 7 -19
0 -29 -12 -53 -67 l-29 -67 -32 67 c-26 56 -35 67 -56 67 -22 0 -25 -5 -30
-52z"/>
<path d="M2028 3123 c-16 -4 -18 -17 -18 -98 0 -109 9 -125 71 -125 32 0 39 3
39 20 0 16 -7 20 -30 20 -29 0 -30 2 -30 44 0 41 2 45 28 48 19 2 27 9 27 23
0 14 -8 21 -27 23 -20 2 -28 9 -28 22 0 22 -8 28 -32 23z"/>
<path d="M2580 3015 l0 -115 30 0 30 0 0 115 0 115 -30 0 -30 0 0 -115z"/>
<path d="M2903 3122 c-22 -3 -23 -8 -23 -96 0 -107 11 -126 73 -126 30 0 37 4
37 19 0 14 -8 21 -27 23 -25 3 -28 7 -31 46 -3 41 -2 42 28 42 27 0 31 3 28
23 -2 15 -11 23 -30 25 -19 2 -28 10 -30 25 -2 16 -9 21 -25 19z"/>
<path d="M3761 3122 c-23 -4 -23 -5 -19 -97 5 -111 13 -125 75 -125 37 0 44 3
41 18 -2 9 -14 19 -28 21 -31 4 -40 17 -40 59 0 29 3 32 30 32 25 0 30 4 30
25 0 21 -5 25 -29 25 -23 0 -30 5 -33 23 -2 17 -8 21 -27 19z"/>
<path d="M1535 3055 c-34 -33 -35 -102 -2 -133 25 -24 75 -29 107 -12 24 13
43 70 34 104 -15 62 -95 86 -139 41z m71 -23 c36 -23 20 -96 -19 -90 -17 2
-23 11 -25 36 -5 45 17 72 44 54z"/>
<path d="M1733 3073 c-9 -3 -13 -31 -13 -89 0 -83 0 -84 25 -84 24 0 25 2 25
70 0 51 4 70 13 70 26 0 37 -25 37 -82 0 -56 1 -58 26 -58 26 0 26 0 22 71 -3
60 -8 74 -27 90 -22 18 -79 24 -108 12z"/>
<path d="M1917 3073 c-4 -3 -7 -44 -7 -90 0 -82 0 -83 25 -83 25 0 25 1 25 90
0 81 -2 90 -18 90 -10 0 -22 -3 -25 -7z"/>
<path d="M2175 3055 c-32 -31 -34 -91 -4 -129 16 -20 29 -26 59 -26 51 0 80
25 87 77 5 37 2 46 -25 73 -39 38 -83 40 -117 5z m89 -48 c12 -32 -1 -60 -29
-65 -21 -5 -35 14 -35 49 0 53 47 65 64 16z"/>
<path d="M2378 3073 c-15 -4 -18 -17 -18 -89 0 -83 0 -84 25 -84 24 0 25 2 25
71 l0 70 28 -3 c21 -2 27 1 27 17 0 16 -7 20 -35 22 -19 0 -43 -1 -52 -4z"/>
<path d="M2703 3073 c-9 -3 -13 -31 -13 -89 0 -83 0 -84 25 -84 24 0 25 2 25
70 0 51 4 70 13 70 26 0 37 -25 37 -82 0 -56 1 -58 26 -58 26 0 26 0 22 71 -3
60 -8 74 -27 90 -22 18 -79 24 -108 12z"/>
<path d="M3049 3051 c-38 -38 -40 -91 -4 -126 19 -20 34 -25 75 -25 43 0 50 3
50 20 0 17 -7 20 -39 20 -22 0 -44 6 -51 15 -11 13 -5 15 44 15 l56 0 0 34 c0
25 -7 40 -26 55 -37 29 -70 26 -105 -8z m79 -28 c2 -9 -7 -13 -28 -13 -28 0
-31 2 -20 15 15 18 41 16 48 -2z"/>
<path d="M3243 3070 c-21 -9 -23 -16 -23 -90 0 -78 1 -80 25 -80 23 0 24 3 27
68 3 66 4 67 30 65 18 -1 28 4 31 17 3 10 2 21 -1 24 -8 9 -64 6 -89 -4z"/>
<path d="M3383 3073 c-9 -3 -13 -31 -13 -89 0 -83 0 -84 25 -84 24 0 25 2 25
70 0 51 4 70 13 70 26 0 37 -25 37 -82 0 -56 1 -58 26 -58 26 0 26 0 22 71 -3
60 -8 74 -27 90 -22 18 -79 24 -108 12z"/>
<path d="M3577 3073 c-4 -3 -7 -13 -7 -22 0 -12 10 -16 37 -16 20 0 38 -6 40
-12 3 -9 -5 -13 -24 -13 -39 0 -73 -26 -73 -55 0 -40 25 -55 91 -55 l59 0 0
70 c0 85 -18 110 -78 110 -21 0 -42 -3 -45 -7z m70 -109 c8 -20 -9 -36 -30
-28 -20 7 -22 30 -4 37 21 9 27 7 34 -9z"/>
<path d="M3897 3073 c-4 -3 -7 -44 -7 -90 0 -82 0 -83 25 -83 25 0 25 1 25 90
0 81 -2 90 -18 90 -10 0 -22 -3 -25 -7z"/>
<path d="M4017 3060 c-34 -27 -44 -78 -23 -118 17 -33 33 -42 80 -42 46 0 76
35 76 89 0 78 -74 117 -133 71z m72 -34 c7 -8 11 -30 9 -48 -2 -25 -8 -34 -25
-36 -39 -6 -55 67 -19 90 16 11 22 10 35 -6z"/>
<path d="M4208 3073 c-15 -4 -18 -17 -18 -89 0 -83 0 -84 25 -84 24 0 25 2 25
70 0 69 3 76 34 64 12 -5 16 -21 16 -70 0 -62 1 -64 25 -64 24 0 25 2 25 70 0
57 -4 74 -20 90 -19 19 -67 25 -112 13z"/>
<path d="M4404 3072 c-22 -14 0 -37 35 -37 19 0 36 -6 39 -12 2 -9 -6 -13 -25
-13 -42 0 -73 -26 -73 -60 0 -38 26 -52 93 -48 l52 3 0 73 c0 61 -3 76 -19 88
-21 15 -83 19 -102 6z m73 -108 c8 -20 -9 -36 -30 -28 -20 7 -22 30 -4 37 21
9 27 7 34 -9z"/>
<path d="M3657 2693 c-11 -10 -8 -213 3 -234 6 -10 20 -19 30 -19 24 0 26 13
5 30 -12 10 -15 37 -15 121 0 100 -5 121 -23 102z"/>
<path d="M1295 2673 c-11 -3 -32 -17 -47 -31 -48 -45 -49 -126 -2 -177 21 -23
30 -26 81 -23 73 4 85 27 13 25 -43 -2 -55 2 -71 22 -29 36 -26 105 7 138 22
21 31 24 64 19 35 -5 62 6 43 17 -15 9 -68 15 -88 10z"/>
<path d="M2477 2674 c-9 -10 2 -24 19 -24 8 0 14 7 14 15 0 15 -21 21 -33 9z"/>
<path d="M3103 2673 c-53 -11 -94 -88 -78 -150 8 -35 53 -83 77 -83 10 0 21
-7 25 -15 6 -18 54 -45 78 -45 28 0 16 27 -15 34 -35 6 -39 22 -9 31 46 15 73
106 49 169 -16 42 -75 70 -127 59z m61 -34 c15 -7 30 -26 36 -46 32 -95 -62
-173 -122 -101 -28 32 -24 103 7 133 27 28 42 30 79 14z"/>
<path d="M3740 2665 c0 -8 9 -15 20 -15 11 0 20 7 20 15 0 8 -9 15 -20 15 -11
0 -20 -7 -20 -15z"/>
<path d="M2351 2660 c-10 -6 -12 -30 -9 -98 5 -105 15 -124 65 -120 34 3 47
22 15 24 -9 1 -23 2 -29 3 -9 1 -13 20 -13 61 l0 60 30 0 c17 0 30 5 30 10 0
6 -13 10 -30 10 -25 0 -30 4 -30 24 0 29 -10 38 -29 26z"/>
<path d="M3843 2663 c-18 -6 -18 -194 -1 -211 18 -18 88 -16 88 4 0 10 -6 13
-19 9 -39 -12 -51 4 -51 66 0 59 0 59 30 59 17 0 30 5 30 10 0 6 -13 10 -29
10 -25 0 -30 4 -33 28 -2 18 -8 27 -15 25z"/>
<path d="M1460 2607 c-48 -24 -57 -122 -13 -154 18 -14 61 -17 88 -7 26 10 48
62 41 100 -7 35 -47 74 -75 74 -9 0 -27 -6 -41 -13z m68 -29 c29 -29 5 -118
-30 -118 -39 0 -61 67 -38 111 12 21 50 25 68 7z"/>
<path d="M1643 2613 c-22 -4 -23 -9 -23 -89 0 -68 3 -84 15 -84 12 0 15 15 15
75 l0 75 28 0 c42 0 52 -17 52 -87 0 -49 3 -63 15 -63 12 0 15 14 15 68 0 39
-5 76 -13 85 -13 18 -66 28 -104 20z"/>
<path d="M1833 2613 c-22 -4 -23 -9 -23 -89 0 -77 2 -84 20 -84 18 0 20 7 20
75 0 72 1 75 23 75 37 0 47 -19 47 -87 0 -49 3 -63 15 -63 21 0 22 142 1 159
-16 14 -71 21 -103 14z"/>
<path d="M2032 2605 c-42 -30 -45 -123 -5 -152 25 -19 103 -17 103 2 0 11 -7
14 -25 9 -29 -7 -75 18 -75 41 0 12 14 15 61 15 66 0 62 -5 43 61 -5 19 -40
39 -67 39 -7 0 -22 -7 -35 -15z m66 -27 c24 -24 13 -38 -28 -38 -26 0 -40 5
-40 13 0 18 21 37 40 37 9 0 21 -5 28 -12z"/>
<path d="M2213 2596 c-23 -20 -28 -32 -28 -71 0 -37 5 -51 24 -66 27 -22 101
-27 101 -6 0 8 -13 13 -35 13 -44 0 -57 13 -58 57 -1 46 17 67 59 67 35 0 46
13 18 24 -29 11 -53 6 -81 -18z"/>
<path d="M2600 2607 c-48 -24 -57 -122 -13 -154 18 -14 61 -17 88 -7 26 10 48
62 41 100 -7 35 -47 74 -75 74 -9 0 -27 -6 -41 -13z m68 -29 c29 -29 5 -118
-30 -118 -39 0 -61 67 -38 111 12 21 50 25 68 7z"/>
<path d="M2783 2613 c-22 -4 -23 -9 -23 -89 0 -68 3 -84 15 -84 12 0 15 15 15
75 l0 75 28 0 c42 0 52 -17 52 -87 0 -49 3 -63 15 -63 12 0 15 14 15 68 0 39
-5 76 -13 85 -13 18 -66 28 -104 20z"/>
<path d="M3497 2613 c-15 -14 -5 -22 31 -25 28 -2 38 -8 40 -24 2 -17 -3 -20
-33 -21 -45 -1 -65 -18 -65 -52 0 -39 18 -51 77 -51 l53 0 0 74 c0 66 -3 77
-22 90 -23 16 -69 21 -81 9z m73 -123 c0 -23 -5 -30 -19 -30 -32 0 -51 11 -51
29 0 24 9 31 42 31 24 0 28 -4 28 -30z"/>
<path d="M2480 2525 c0 -69 3 -85 15 -85 12 0 15 16 15 85 0 69 -3 85 -15 85
-12 0 -15 -16 -15 -85z"/>
<path d="M3290 2542 c0 -87 15 -105 86 -100 l49 3 3 83 c2 68 0 82 -13 82 -12
0 -15 -14 -15 -69 0 -60 -3 -70 -20 -76 -10 -3 -28 -1 -40 5 -17 9 -20 21 -20
75 0 51 -3 65 -15 65 -12 0 -15 -14 -15 -68z"/>
<path d="M3740 2525 c0 -78 2 -85 20 -85 18 0 20 7 20 85 0 78 -2 85 -20 85
-18 0 -20 -7 -20 -85z"/>
<path d="M3947 2588 c3 -13 19 -52 35 -87 27 -61 27 -65 11 -83 -9 -11 -25
-17 -35 -15 -11 3 -18 0 -18 -9 0 -20 54 -18 73 4 18 19 60 126 72 180 5 24 3
32 -8 32 -9 0 -20 -23 -32 -65 -9 -36 -21 -63 -25 -60 -4 3 -16 32 -26 65 -13
41 -24 60 -36 60 -12 0 -15 -6 -11 -22z"/>
</g>
</svg>
