<?xml version="1.0" standalone="no"?>
<!DOCTYPE svg PUBLIC "-//W3C//DTD SVG 20010904//EN"
 "http://www.w3.org/TR/2001/REC-SVG-20010904/DTD/svg10.dtd">
<svg version="1.0" xmlns="http://www.w3.org/2000/svg"
 width="596.000000pt" height="640.000000pt" viewBox="0 0 596.000000 640.000000"
 preserveAspectRatio="xMidYMid meet">

<g transform="translate(0.000000,640.000000) scale(0.100000,-0.100000)"
fill="#000000" stroke="none">
<path d="M4080 5035 c-115 -26 -287 -99 -400 -170 l-37 -24 -89 44 c-118 57
-208 88 -335 117 -138 31 -445 33 -579 5 -336 -72 -602 -225 -821 -473 -294
-332 -420 -796 -339 -1245 13 -72 69 -253 76 -246 3 2 0 17 -6 33 -45 118 -62
374 -36 550 24 165 51 257 110 379 64 131 122 211 218 299 123 115 255 159
375 125 67 -18 151 -103 184 -184 22 -55 24 -74 23 -210 0 -134 -4 -160 -28
-240 -32 -106 -108 -260 -294 -595 -256 -462 -357 -736 -356 -970 0 -86 4
-114 23 -156 54 -123 173 -172 350 -145 104 16 201 51 365 130 295 141 553
335 876 660 555 558 1001 1265 1111 1761 34 151 34 343 1 416 -27 60 -59 93
-121 125 -56 29 -177 35 -271 14z m116 -139 c56 -37 75 -130 51 -248 -17 -81
-86 -278 -98 -278 -4 0 -19 20 -33 45 -37 63 -182 212 -288 296 l-89 72 43 25
c169 98 342 134 414 88z"/>
<path d="M4342 3704 c-69 -235 -215 -501 -426 -774 -105 -136 -413 -444 -541
-541 -126 -96 -257 -182 -360 -236 l-80 -42 55 -1 c78 0 230 25 330 54 522
152 916 577 1035 1116 19 85 31 390 18 459 l-8 44 -23 -79z"/>
<path d="M1420 1625 c0 -3 56 -118 125 -255 l125 -250 58 0 58 0 41 83 c23 45
83 160 132 255 l90 173 -56 -3 -56 -3 -102 -199 -103 -198 -55 103 c-30 57
-77 148 -103 202 l-49 97 -52 0 c-29 0 -53 -2 -53 -5z"/>
<path d="M2310 1375 l0 -255 50 0 50 0 2 190 3 189 170 -189 170 -189 63 -1
62 0 0 255 0 255 -50 0 -50 0 -2 -190 -3 -190 -170 190 -169 190 -63 0 -63 0
0 -255z"/>
<path d="M3270 1375 l0 -255 55 0 55 0 0 88 0 89 157 7 c136 6 163 10 197 29
54 31 78 78 73 145 -5 64 -28 99 -87 130 -42 21 -56 22 -247 22 l-203 0 0
-255z m393 154 c30 -16 37 -28 37 -66 0 -55 -31 -67 -187 -71 l-133 -4 0 76 0
76 131 0 c79 0 139 -5 152 -11z"/>
<path d="M4000 1585 l0 -45 110 0 110 0 0 -210 0 -210 50 0 50 0 0 210 0 210
110 0 110 0 0 45 0 45 -270 0 -270 0 0 -45z"/>
</g>
</svg>
