<?xml version="1.0" standalone="no"?>
<!DOCTYPE svg PUBLIC "-//W3C//DTD SVG 20010904//EN"
 "http://www.w3.org/TR/2001/REC-SVG-20010904/DTD/svg10.dtd">
<svg version="1.0" xmlns="http://www.w3.org/2000/svg"
 width="1024.000000pt" height="640.000000pt" viewBox="0 0 1024.000000 640.000000"
 preserveAspectRatio="xMidYMid meet">

<g transform="translate(0.000000,640.000000) scale(0.100000,-0.100000)"
fill="#000000" stroke="none">
<path d="M3182 4300 c-20 -19 -22 -31 -22 -117 l0 -96 23 20 c35 32 45 36 125
43 65 7 79 12 99 34 30 36 30 86 0 114 -20 19 -35 22 -113 22 -77 0 -93 -3
-112 -20z"/>
<path d="M7806 4269 l-27 -21 3 -461 3 -462 25 -48 c30 -59 96 -122 158 -150
40 -18 71 -22 200 -25 170 -5 204 3 227 49 8 15 15 48 15 73 l0 44 -133 4
c-147 3 -171 12 -207 71 -19 30 -20 53 -20 465 l0 433 -25 24 c-22 23 -32 25
-108 25 -70 0 -89 -3 -111 -21z"/>
<path d="M5004 4272 c-32 -22 -44 -59 -44 -134 l0 -78 -80 0 -80 0 0 -56 c0
-48 4 -59 29 -85 25 -24 38 -29 79 -29 l50 0 4 -277 c3 -277 3 -278 30 -335
32 -69 93 -117 188 -149 51 -17 97 -22 210 -26 180 -6 183 -5 188 94 l4 70
-93 7 c-125 9 -182 28 -217 74 l-27 35 -3 254 -3 253 275 0 275 0 3 -287 c3
-274 4 -290 25 -329 64 -120 199 -173 441 -174 130 0 142 9 142 104 l0 63 -87
7 c-148 12 -187 28 -229 91 -17 26 -19 52 -22 277 l-4 248 142 0 c136 0 142 1
165 25 21 20 25 34 25 84 l0 61 -162 2 -163 3 -5 88 c-7 117 -18 127 -135 127
-117 0 -128 -10 -135 -127 l-5 -88 -272 -3 -273 -2 0 75 c0 79 -16 127 -45
139 -23 8 -178 7 -191 -2z"/>
<path d="M4000 4060 c-214 -23 -339 -95 -391 -226 -22 -55 -24 -72 -24 -259 0
-184 2 -205 23 -256 46 -114 145 -187 282 -209 36 -5 223 -10 416 -10 409 0
384 -7 384 102 l0 66 -342 4 c-343 3 -343 3 -393 28 -60 30 -84 72 -88 151
l-2 54 386 5 386 5 35 27 c48 37 61 80 56 187 -9 174 -90 266 -282 315 -70 18
-338 28 -446 16z m328 -185 c64 -19 105 -53 126 -105 17 -44 10 -83 -19 -94
-9 -3 -112 -6 -228 -6 -227 0 -269 -6 -317 -46 l-30 -26 0 62 c0 122 35 177
132 211 69 24 261 26 336 4z"/>
<path d="M6882 4060 c-157 -17 -265 -62 -333 -138 -69 -78 -90 -195 -78 -430
5 -110 10 -137 33 -188 33 -72 75 -118 140 -151 92 -47 152 -53 542 -53 422 0
394 -7 394 106 l0 69 -343 0 -342 0 -50 25 c-61 31 -85 70 -92 150 l-6 60 378
0 c369 0 378 0 416 22 60 34 83 89 77 191 -10 179 -100 277 -293 322 -76 18
-334 26 -443 15z m373 -201 c28 -14 60 -40 73 -59 28 -43 30 -105 3 -120 -12
-6 -107 -10 -241 -10 -235 0 -267 -5 -317 -52 l-23 -21 0 71 c0 82 11 116 48
156 51 53 103 65 272 63 124 -2 140 -4 185 -28z"/>
<path d="M1840 4054 c0 -3 29 -60 64 -127 35 -67 134 -259 221 -427 86 -168
166 -319 177 -337 27 -46 90 -73 169 -73 84 0 132 14 164 48 14 15 129 228
255 472 l229 445 -95 3 c-82 2 -100 0 -141 -20 -25 -13 -59 -39 -74 -58 -15
-19 -77 -141 -137 -270 -162 -348 -183 -390 -191 -390 -9 0 -24 30 -177 353
-67 142 -133 275 -147 296 -16 24 -45 48 -78 65 -46 22 -66 26 -146 26 -51 0
-93 -3 -93 -6z"/>
<path d="M3182 4037 c-22 -23 -22 -25 -22 -456 l0 -432 25 -24 c22 -23 32 -25
110 -25 78 0 88 2 110 25 l25 24 0 429 c0 520 11 482 -134 482 -84 0 -95 -2
-114 -23z"/>
<path d="M5400 2512 c-32 -27 -35 -52 -7 -52 22 0 81 56 73 68 -11 19 -29 14
-66 -16z"/>
<path d="M6770 2525 c0 -10 10 -15 30 -15 29 0 40 -13 20 -25 -15 -10 -12 -35
5 -35 8 0 15 5 15 10 0 6 7 10 15 10 15 0 19 12 15 40 -3 22 -20 30 -62 30
-27 0 -38 -4 -38 -15z"/>
<path d="M3550 2511 c0 -17 8 -20 58 -23 l57 -3 3 -172 c2 -165 3 -173 22
-173 19 0 20 7 20 175 l0 175 56 0 c47 0 55 3 52 18 -3 15 -19 17 -136 20
-126 2 -132 2 -132 -17z"/>
<path d="M3840 2335 c0 -194 0 -196 21 -193 20 3 21 9 22 128 l2 125 70 3
c108 4 113 -4 114 -165 1 -86 2 -93 21 -93 19 0 20 7 20 116 0 63 -5 124 -11
136 -16 30 -71 48 -146 48 l-68 0 0 43 c0 36 -3 42 -22 45 l-23 3 0 -196z"/>
<path d="M5910 2335 c0 -188 1 -195 20 -195 19 0 20 7 20 130 l0 130 75 0
c109 0 115 -8 115 -150 0 -103 1 -110 20 -110 19 0 20 7 20 119 0 112 -2 122
-24 147 -21 26 -30 28 -115 32 l-91 4 0 44 c0 37 -3 44 -20 44 -19 0 -20 -7
-20 -195z"/>
<path d="M7467 2523 c-4 -3 -7 -82 -7 -175 0 -208 0 -208 118 -208 93 0 139
19 164 70 34 66 17 165 -33 201 -23 16 -50 23 -115 27 l-84 5 0 43 c0 36 -3
44 -18 44 -10 0 -22 -3 -25 -7z m197 -134 c32 -15 50 -67 43 -126 -7 -66 -24
-77 -117 -81 l-80 -4 0 111 0 111 65 0 c35 0 75 -5 89 -11z"/>
<path d="M4241 2430 c-18 -4 -45 -20 -59 -34 -22 -22 -27 -37 -30 -93 -5 -83
7 -117 50 -143 28 -17 47 -20 133 -18 81 2 100 6 100 18 0 12 -20 16 -101 20
-110 5 -129 14 -136 60 l-5 30 104 0 c126 0 143 7 143 60 0 83 -87 126 -199
100z m118 -45 c24 -12 40 -39 41 -67 0 -5 -45 -8 -100 -8 -99 0 -100 0 -100
24 0 55 94 85 159 51z"/>
<path d="M4551 2427 c-50 -17 -74 -56 -78 -124 -7 -110 46 -163 165 -163 118
0 166 43 166 150 0 73 -22 113 -74 134 -47 19 -130 20 -179 3z m186 -50 c14
-14 18 -34 18 -88 0 -93 -17 -109 -117 -109 -60 0 -72 3 -93 25 -21 20 -25 34
-25 85 0 52 4 65 26 87 23 23 31 25 99 21 54 -2 79 -8 92 -21z"/>
<path d="M5063 2429 c-17 -5 -43 -23 -57 -40 -22 -26 -26 -40 -26 -94 0 -121
29 -147 173 -153 93 -4 97 -4 97 17 0 20 -5 21 -81 21 -77 0 -115 10 -131 34
-4 6 -8 41 -8 77 0 91 14 103 126 108 75 3 84 5 84 22 0 17 -8 19 -72 18 -40
0 -87 -5 -105 -10z"/>
<path d="M5307 2433 c-4 -3 -7 -12 -7 -20 0 -10 22 -13 93 -13 102 0 117 -7
117 -52 l0 -28 -95 0 c-82 0 -98 -3 -115 -20 -30 -30 -28 -103 5 -135 22 -23
31 -25 124 -25 130 0 131 1 131 130 0 113 -10 145 -53 160 -33 11 -190 14
-200 3z m203 -198 l0 -56 -87 3 -88 3 -3 40 c-5 54 14 65 105 65 l73 0 0 -55z"/>
<path d="M5683 2429 c-17 -5 -43 -23 -57 -40 -23 -27 -26 -40 -26 -103 0 -118
37 -146 193 -146 70 0 77 2 77 20 0 18 -7 20 -80 20 -43 0 -91 5 -105 12 -31
14 -48 70 -39 127 10 62 32 75 130 80 75 3 84 5 84 22 0 17 -8 19 -72 18 -40
0 -87 -5 -105 -10z"/>
<path d="M6470 2430 c-19 -5 -47 -22 -62 -39 -25 -28 -28 -39 -28 -104 0 -118
37 -147 185 -147 78 0 85 2 85 20 0 18 -7 20 -79 20 -107 0 -127 9 -141 61
-16 57 -4 114 27 139 21 16 41 20 104 20 72 0 79 2 79 20 0 18 -6 20 -67 19
-38 -1 -84 -5 -103 -9z"/>
<path d="M6684 2426 c-3 -8 -4 -65 -2 -125 4 -148 10 -155 147 -159 134 -5
131 -8 131 164 0 135 0 135 -22 132 -22 -3 -23 -7 -26 -130 l-3 -128 -72 0
c-40 0 -79 5 -87 10 -11 7 -16 37 -20 127 -4 102 -7 118 -23 121 -9 2 -20 -3
-23 -12z"/>
<path d="M7020 2421 c0 -20 5 -21 89 -21 97 0 125 -13 119 -54 -3 -19 -11 -21
-101 -26 -115 -6 -127 -15 -127 -91 0 -39 5 -51 26 -68 23 -18 41 -21 123 -21
62 0 101 4 109 12 8 8 12 50 12 124 0 155 -3 158 -144 162 -102 4 -106 3 -106
-17z m208 -188 l3 -53 -86 0 c-81 0 -86 1 -96 24 -14 31 -4 73 19 79 9 3 49 4
87 4 l70 -2 3 -52z"/>
<path d="M7810 2420 c0 -19 7 -20 89 -20 112 0 121 -3 121 -46 l0 -34 -93 0
c-106 0 -131 -11 -141 -63 -8 -45 9 -92 40 -106 31 -14 199 -15 225 -1 17 10
19 22 19 121 0 61 -4 119 -10 129 -15 28 -64 40 -161 40 -82 0 -89 -2 -89 -20z
m208 -187 l3 -53 -86 0 c-81 0 -86 1 -96 24 -16 34 -4 74 24 79 12 3 51 4 87
3 l65 -1 3 -52z"/>
<path d="M8136 2424 c-13 -12 -16 -41 -16 -150 l0 -134 25 0 25 0 0 130 0 130
79 0 c106 0 111 -7 111 -152 0 -101 1 -108 20 -108 19 0 20 7 20 124 0 165
-11 176 -165 176 -63 0 -88 -4 -99 -16z"/>
<path d="M7910 2095 c0 -20 5 -25 25 -25 20 0 25 5 25 25 0 20 -5 25 -25 25
-20 0 -25 -5 -25 -25z"/>
</g>
</svg>
