<?xml version="1.0" standalone="no"?>
<!DOCTYPE svg PUBLIC "-//W3C//DTD SVG 20010904//EN"
 "http://www.w3.org/TR/2001/REC-SVG-20010904/DTD/svg10.dtd">
<svg version="1.0" xmlns="http://www.w3.org/2000/svg"
 width="900.000000pt" height="600.000000pt" viewBox="0 0 900.000000 600.000000"
 preserveAspectRatio="xMidYMid meet">

<g transform="translate(0.000000,600.000000) scale(0.100000,-0.100000)"
fill="#000000" stroke="none">
<path d="M4120 4256 c0 -2 8 -10 18 -17 15 -13 16 -12 3 4 -13 16 -21 21 -21
13z"/>
<path d="M3360 4080 c-471 -5 -487 -6 -544 -27 -188 -71 -350 -236 -402 -411
-13 -40 -279 -1183 -350 -1502 -13 -58 -26 -115 -30 -127 l-6 -23 483 0 c447
0 489 1 551 19 126 36 223 104 315 219 29 37 64 96 78 132 19 49 162 645 235
980 11 52 32 143 104 455 36 154 62 282 58 285 -4 3 -225 3 -492 0z m236 -542
c-10 -49 -56 -118 -104 -155 -75 -57 -114 -63 -418 -63 l-273 0 -11 -42 c-6
-24 -15 -59 -20 -79 -6 -20 -10 -39 -10 -43 0 -4 137 -5 305 -4 199 2 305 0
305 -7 0 -31 -53 -116 -98 -156 -78 -71 -117 -79 -362 -79 l-207 0 -23 -102
c-12 -57 -31 -120 -42 -141 -26 -52 -88 -112 -140 -135 -50 -22 -128 -35 -128
-20 0 8 42 195 164 723 18 77 40 154 49 172 39 75 126 138 209 152 29 5 223 9
432 10 l379 1 -7 -32z"/>
<path d="M4061 4034 c0 -11 3 -14 6 -6 3 7 2 16 -1 19 -3 4 -6 -2 -5 -13z"/>
<path d="M5917 4039 c7 -7 15 -10 18 -7 3 3 -2 9 -12 12 -14 6 -15 5 -6 -5z"/>
<path d="M6830 3811 c0 -6 4 -13 10 -16 6 -3 7 1 4 9 -7 18 -14 21 -14 7z"/>
<path d="M6458 3563 c7 -3 16 -2 19 1 4 3 -2 6 -13 5 -11 0 -14 -3 -6 -6z"/>
<path d="M5101 3474 c0 -11 3 -14 6 -6 3 7 2 16 -1 19 -3 4 -6 -2 -5 -13z"/>
<path d="M5591 3454 c0 -11 3 -14 6 -6 3 7 2 16 -1 19 -3 4 -6 -2 -5 -13z"/>
<path d="M5713 3318 c7 -4 57 -7 112 -6 111 1 95 6 -37 10 -47 2 -81 0 -75 -4z"/>
<path d="M6230 3313 c0 -5 76 -8 169 -8 93 0 167 3 164 8 -2 4 -78 7 -169 7
-90 0 -164 -3 -164 -7z"/>
<path d="M5006 3087 c3 -10 9 -15 12 -12 3 3 0 11 -7 18 -10 9 -11 8 -5 -6z"/>
<path d="M6125 3039 c-4 -6 -5 -12 -2 -15 2 -3 7 2 10 11 7 17 1 20 -8 4z"/>
<path d="M5851 2974 c0 -11 3 -14 6 -6 3 7 2 16 -1 19 -3 4 -6 -2 -5 -13z"/>
<path d="M6122 2950 c0 -14 2 -19 5 -12 2 6 2 18 0 25 -3 6 -5 1 -5 -13z"/>
<path d="M6101 2944 c0 -11 3 -14 6 -6 3 7 2 16 -1 19 -3 4 -6 -2 -5 -13z"/>
<path d="M5301 2914 c0 -11 3 -14 6 -6 3 7 2 16 -1 19 -3 4 -6 -2 -5 -13z"/>
<path d="M6061 2784 c0 -11 3 -14 6 -6 3 7 2 16 -1 19 -3 4 -6 -2 -5 -13z"/>
<path d="M5801 2754 c0 -11 3 -14 6 -6 3 7 2 16 -1 19 -3 4 -6 -2 -5 -13z"/>
<path d="M5833 2503 c9 -2 23 -2 30 0 6 3 -1 5 -18 5 -16 0 -22 -2 -12 -5z"/>
<path d="M6805 2335 c-56 -20 -112 -85 -121 -140 -11 -74 31 -156 97 -190 43
-23 127 -19 173 8 51 28 86 93 86 157 0 115 -126 204 -235 165z m137 -56 c83
-68 71 -196 -22 -244 -89 -46 -192 20 -193 123 -1 127 124 197 215 121z"/>
<path d="M6790 2170 c0 -93 1 -100 20 -100 17 0 20 7 20 40 0 26 4 40 13 40 7
0 23 -18 36 -40 14 -25 30 -40 41 -40 19 0 19 1 -2 35 l-21 36 22 23 c11 12
21 34 21 49 0 37 -34 57 -97 57 l-53 0 0 -100z m105 40 c0 -21 -5 -26 -32 -28
-31 -3 -33 -1 -33 28 0 29 2 31 33 28 27 -2 32 -7 32 -28z"/>
<path d="M6369 2183 c-13 -16 -12 -17 4 -4 16 13 21 21 13 21 -2 0 -10 -8 -17
-17z"/>
<path d="M6280 2110 c-9 -6 -10 -10 -3 -10 6 0 15 5 18 10 8 12 4 12 -15 0z"/>
<path d="M6160 2040 c-8 -5 -10 -10 -5 -10 6 0 17 5 25 10 8 5 11 10 5 10 -5
0 -17 -5 -25 -10z"/>
</g>
</svg>
